<svg width="330" height="50" viewBox="0 0 330 50" fill="none" xmlns="http://www.w3.org/2000/svg">
<path d="M-1.78814e-07 48.448C0.554667 45.504 1.088 42.6027 1.6 39.744C2.15467 36.8427 2.70933 33.9627 3.264 31.104C3.86133 27.5627 4.416 24.2347 4.928 21.12C5.48267 18.0053 6.016 14.912 6.528 11.84C7.08267 8.76801 7.616 5.54667 8.128 2.17601L18.496 1.472C17.7707 4.45867 17.0453 7.57334 16.32 10.816C15.6373 14.0587 14.9973 17.216 14.4 20.288L20.736 19.584C21.0347 18.0907 21.312 16.6187 21.568 15.168C21.8667 13.6747 22.1227 12.2027 22.336 10.752C22.5493 9.34401 22.8053 7.91467 23.104 6.464C23.4453 4.97067 23.808 3.47734 24.192 1.984C25.728 1.72801 27.2853 1.53601 28.864 1.408C30.4427 1.23734 31.7653 1.13067 32.832 1.08801C33.8987 1.00267 34.432 0.960007 34.432 0.960007C33.8773 2.66667 33.3227 4.672 32.768 6.97601C32.2133 9.28001 31.68 11.712 31.168 14.272C30.656 16.832 30.1653 19.392 29.696 21.952C29.2267 24.4693 28.8 26.816 28.416 28.992C27.9467 31.7227 27.4987 34.4747 27.072 37.248C26.6453 39.9787 26.2187 42.7733 25.792 45.632L15.808 46.784C16.1067 45.504 16.3627 44.2453 16.576 43.008C16.832 41.728 17.0667 40.4907 17.28 39.296C17.7067 37.248 18.1333 35.1147 18.56 32.896C19.0293 30.6773 19.392 28.7787 19.648 27.2L13.44 27.776C13.2693 28.5867 13.0987 29.4613 12.928 30.4C12.8 31.3387 12.6293 32.3413 12.416 33.408C12.2027 34.4747 11.9893 35.52 11.776 36.544C11.6053 37.5253 11.4347 38.5067 11.264 39.488C11.0507 40.64 10.816 41.792 10.56 42.944C10.304 44.096 10.0693 45.248 9.856 46.4L-1.78814e-07 48.448ZM38.2965 49.472C37.0165 49.472 35.7152 49.1947 34.3925 48.64C33.0698 48.0853 31.9605 47.232 31.0645 46.08C30.1685 44.928 29.7205 43.456 29.7205 41.664V41.152C29.7205 40.9387 29.7418 40.768 29.7845 40.64C29.9125 39.5307 30.0832 38.08 30.2965 36.288C30.5525 34.496 30.8512 32.5547 31.1925 30.464C31.5338 28.3307 31.8752 26.2187 32.2165 24.128C32.6005 22.0373 32.9418 20.1387 33.2405 18.432C33.8805 15.0187 34.3925 12.2667 34.7765 10.176C35.1605 8.08534 35.4592 6.48534 35.6725 5.37601C35.9285 4.22401 36.1205 3.37067 36.2485 2.81601C36.7178 2.77334 37.2085 2.73067 37.7205 2.688C38.2752 2.60267 38.8512 2.53867 39.4485 2.49601C40.0458 2.41067 40.6218 2.34667 41.1765 2.304C41.7738 2.26134 42.3498 2.21867 42.9045 2.17601L46.8085 1.792C46.2538 4.39467 45.7205 6.86934 45.2085 9.21601C44.7392 11.52 44.2912 13.7173 43.8645 15.808L40.9205 29.952C40.6645 31.0187 40.4725 31.9147 40.3445 32.64C40.1738 33.3227 39.9818 34.1973 39.7685 35.264C39.5978 36.288 39.5125 37.2267 39.5125 38.08C39.5125 38.7627 39.6832 39.3387 40.0245 39.808C40.3658 40.2347 40.7925 40.448 41.3045 40.448C42.0298 40.448 42.6272 40.1707 43.0965 39.616C43.5658 39.0613 43.9498 38.3787 44.2485 37.568C44.5472 36.7573 44.7818 35.9467 44.9525 35.136C45.1232 34.2827 45.2725 33.6 45.4005 33.088C45.8272 31.1253 46.2112 29.2267 46.5525 27.392C46.9365 25.5147 47.3205 23.5307 47.7045 21.44C48.1312 19.3493 48.6005 16.9387 49.1125 14.208C49.4538 12.3307 49.7952 10.432 50.1365 8.512C50.5205 6.54934 50.8832 4.56534 51.2245 2.56001L60.9525 1.92001C60.9525 1.92001 60.7605 2.94401 60.3765 4.992C59.9925 7.04001 59.4378 10.1333 58.7125 14.272C58.4138 15.8507 58.0725 17.6213 57.6885 19.584C57.3472 21.5467 56.9632 23.5307 56.5365 25.536C56.1098 27.5413 55.7045 29.44 55.3205 31.232C54.9792 33.024 54.6592 34.56 54.3605 35.84C53.5072 39.3387 52.1845 42.0907 50.3925 44.096C48.6005 46.0587 46.6165 47.4453 44.4405 48.256C42.3072 49.0667 40.2592 49.472 38.2965 49.472ZM52.629 47.936C54.5063 42.2187 56.2983 36.6507 58.005 31.232C58.7303 29.0133 59.477 26.6453 60.245 24.128C61.013 21.6107 61.781 19.0933 62.549 16.576C63.317 14.016 64.0423 11.5627 64.725 9.21601C65.4077 6.86934 65.9837 4.77867 66.453 2.944C68.7997 2.944 71.0183 2.816 73.109 2.56001C74.1757 2.432 75.2637 2.304 76.373 2.17601C77.525 2.04801 78.6983 1.94134 79.893 1.85601L79.509 4.992C79.4237 5.58934 79.3383 6.20801 79.253 6.84801C79.1677 7.44534 79.0823 8.06401 78.997 8.70401C78.9117 9.34401 78.805 10.0053 78.677 10.688C78.549 11.328 78.4423 11.9893 78.357 12.672C78.1863 13.9947 77.9303 15.8507 77.589 18.24C77.2477 20.5867 76.8423 23.1467 76.373 25.92H77.205C78.4423 22.6773 79.4663 19.9893 80.277 17.856C81.0877 15.68 81.749 13.9093 82.261 12.544C82.9863 10.5387 83.7757 8.51201 84.629 6.464C85.4823 4.41601 86.1863 2.83734 86.741 1.728C87.765 1.64267 88.981 1.51467 90.389 1.34401C91.8397 1.13067 93.2903 0.896005 94.741 0.640003C96.2343 0.384004 97.5143 0.170671 98.581 3.8147e-06C97.9837 3.58401 97.429 7.21067 96.917 10.88C96.4477 14.5067 96.021 17.984 95.637 21.312C95.2957 24.5973 94.997 27.5627 94.741 30.208C94.485 32.8533 94.2503 35.4773 94.037 38.08C93.8237 40.64 93.6103 43.1787 93.397 45.696L82.261 47.68C82.261 47.5947 82.325 46.6347 82.453 44.8C82.581 42.9653 82.7943 40.6827 83.093 37.952C83.3917 35.2213 83.6903 32.64 83.989 30.208C84.2877 27.7333 84.5863 25.7067 84.885 24.128H84.309C83.2423 27.3707 81.941 30.912 80.405 34.752C78.9117 38.592 77.4397 42.8373 75.989 47.488C74.4957 47.5307 73.2157 47.5947 72.149 47.68C71.0823 47.7227 69.845 47.7867 68.437 47.872L70.485 24.128H69.525C69.4823 24.5973 69.2903 25.5147 68.949 26.88C68.6077 28.2027 68.2023 29.7387 67.733 31.488C67.2637 33.1947 66.773 34.9013 66.261 36.608C64.341 43.3067 63.317 46.848 63.189 47.232L52.629 47.936ZM110.75 48.192C110.835 47.4667 110.921 46.7627 111.006 46.08C111.091 45.3973 111.177 44.7147 111.262 44.032L111.646 40.448C111.689 39.8507 111.731 39.296 111.774 38.784C111.817 38.272 111.859 37.8027 111.902 37.376H106.334L103.774 46.592C102.835 46.72 101.726 46.8693 100.446 47.04C99.166 47.168 97.9713 47.296 96.862 47.424C96.1793 47.5093 95.4967 47.5947 94.814 47.68C94.174 47.7653 93.5127 47.8507 92.83 47.936L97.886 31.168C98.4833 29.1627 99.166 26.88 99.934 24.32C100.702 21.76 101.47 19.136 102.238 16.448C103.049 13.76 103.795 11.2427 104.478 8.896C105.203 6.50667 105.779 4.50134 106.206 2.88C109.107 2.66667 112.051 2.41067 115.038 2.112C118.067 1.81334 121.011 1.408 123.87 0.896004C123.657 3.28534 123.443 5.99467 123.23 9.02401C123.059 12.0107 122.889 15.104 122.718 18.304C122.59 21.504 122.441 24.6613 122.27 27.776C122.185 30.72 122.078 33.7707 121.95 36.928C121.822 40.0427 121.694 43.2427 121.566 46.528C120.926 46.6133 120.286 46.6987 119.646 46.784C119.006 46.8693 118.366 46.9547 117.726 47.04C116.659 47.2107 115.486 47.4027 114.206 47.616C112.926 47.8293 111.774 48.0213 110.75 48.192ZM107.87 30.976C108.126 30.976 108.595 30.9547 109.278 30.912C110.003 30.8693 110.686 30.8267 111.326 30.784C111.966 30.7413 112.35 30.72 112.478 30.72C112.478 30.1653 112.563 29.0347 112.734 27.328C112.905 25.6213 113.075 23.8293 113.246 21.952C113.331 20.8427 113.417 19.712 113.502 18.56C113.63 17.3653 113.758 16.1493 113.886 14.912L114.27 9.34401L113.31 9.408L111.838 14.912L107.87 30.976ZM122.181 48.64C123.461 42.496 124.677 36.544 125.829 30.784C126.768 25.3653 127.686 20.16 128.582 15.168C129.477 10.176 130.117 5.58934 130.502 1.408C130.8 1.45067 131.056 1.472 131.269 1.472C131.526 1.472 131.739 1.472 131.91 1.472H133.253C134.363 1.472 135.6 1.45067 136.966 1.408C138.331 1.32267 139.59 1.25867 140.742 1.216C141.04 2.70934 141.318 4.18134 141.574 5.632C141.872 7.08267 142.128 8.49067 142.342 9.85601C142.555 11.0507 142.79 12.288 143.046 13.568C143.302 14.8053 143.558 16.064 143.814 17.344C144.027 18.624 144.24 19.8187 144.454 20.928C144.71 21.9947 144.923 22.976 145.094 23.872C145.606 21.3547 146.075 18.88 146.502 16.448C146.971 14.016 147.419 11.8187 147.846 9.85601L149.702 1.28001L157.51 0.320004C156.784 3.56267 156.102 6.74134 155.462 9.85601C154.822 12.9707 154.224 15.9787 153.67 18.88C152.603 24.0853 151.664 28.992 150.854 33.6C150.043 38.208 149.424 42.2187 148.998 45.632C149.467 45.632 149.382 45.696 148.742 45.824C148.144 45.9093 147.248 46.0587 146.054 46.272C144.859 46.4427 143.579 46.6773 142.214 46.976C140.848 47.2747 139.632 47.6373 138.566 48.064C138.438 46.3573 138.31 44.6933 138.182 43.072C138.054 41.4507 137.904 39.872 137.734 38.336C137.478 35.6053 137.179 32.896 136.838 30.208C136.496 27.52 136.155 25.3867 135.814 23.808C135.515 25.6853 135.152 27.84 134.726 30.272C134.299 32.6613 133.83 35.072 133.318 37.504L131.526 46.464L122.181 48.64ZM163.107 48.384C164.387 42.624 165.603 36.992 166.755 31.488C167.224 29.2693 167.694 26.9013 168.163 24.384C168.675 21.824 169.187 19.2427 169.699 16.64C170.211 14.0373 170.68 11.584 171.107 9.28001C171.534 6.93334 171.875 4.88534 172.131 3.13601C173.838 2.624 175.672 2.15467 177.635 1.728C179.64 1.30134 181.432 1.08801 183.011 1.08801C185.571 1.08801 187.598 1.64267 189.091 2.75201C190.584 3.81867 191.651 5.26934 192.291 7.104C192.931 8.93867 193.251 10.944 193.251 13.12C193.251 15.5093 192.803 17.8133 191.907 20.032C191.054 22.208 189.88 24.1707 188.387 25.92C186.936 27.6693 185.251 29.056 183.331 30.08C181.454 31.104 179.491 31.616 177.443 31.616H176.739C176.398 33.0667 176.078 34.6453 175.779 36.352C175.48 38.0587 175.224 39.6373 175.011 41.088C174.84 41.9413 174.691 42.7947 174.563 43.648C174.435 44.5013 174.307 45.3547 174.179 46.208L163.107 48.384ZM178.019 24.896C179 24.64 179.982 24 180.963 22.976C181.944 21.9093 182.755 20.5653 183.395 18.944C184.035 17.3227 184.355 15.552 184.355 13.632C184.355 12.0533 183.992 10.8587 183.267 10.048C182.584 9.23734 181.816 8.832 180.963 8.832C180.494 11.648 180.024 14.3147 179.555 16.832C179.086 19.3493 178.574 22.0373 178.019 24.896ZM187.805 48.384L191.133 31.744C191.645 28.672 192.2 25.5147 192.797 22.272C193.394 19.0293 193.949 15.8293 194.461 12.672C195.016 9.51467 195.442 6.54934 195.741 3.776C198.173 3.008 200.797 2.45334 203.613 2.112C206.429 1.72801 209.224 1.53601 211.997 1.53601C215.24 1.53601 217.437 2.24001 218.589 3.64801C219.784 5.05601 220.381 6.95467 220.381 9.34401C220.381 11.52 219.869 13.7173 218.845 15.936C217.821 18.112 216.477 20.096 214.813 21.888C213.192 23.6373 211.4 25.024 209.437 26.048C210.205 27.7547 211.016 29.632 211.869 31.68C212.765 33.6853 213.597 35.6053 214.365 37.44C214.792 38.5067 215.218 39.5733 215.645 40.64C216.114 41.7067 216.562 42.7733 216.989 43.84L207.069 47.296L204.765 39.616C204.125 37.4827 203.528 35.4347 202.973 33.472C202.461 31.4667 202.162 30.0587 202.077 29.248L201.245 29.504C201.117 30.1867 200.968 30.9333 200.797 31.744C200.669 32.512 200.52 33.3653 200.349 34.304C200.178 35.2427 200.008 36.16 199.837 37.056C199.666 37.9093 199.496 38.7627 199.325 39.616L198.173 45.696L187.805 48.384ZM202.845 20.608C203.613 20.5227 204.552 20.2027 205.661 19.648C206.813 19.0507 207.944 18.3253 209.053 17.472C210.205 16.6187 211.165 15.744 211.933 14.848C212.701 13.952 213.085 13.1627 213.085 12.48C213.085 11.6267 212.573 11.072 211.549 10.816C210.568 10.5173 209.266 10.368 207.645 10.368H206.237C205.981 10.4107 205.746 10.432 205.533 10.432C205.32 10.432 205.106 10.432 204.893 10.432L202.845 20.608ZM227.571 48.576C224.755 48.576 222.451 47.488 220.659 45.312C218.866 43.136 217.97 39.8507 217.97 35.456C217.97 33.024 218.269 30.464 218.866 27.776C219.464 25.088 220.296 22.4427 221.363 19.84C222.429 17.2373 223.667 14.8267 225.075 12.608C227.336 9.02401 229.939 6.10134 232.882 3.84C235.826 1.57867 238.92 0.448006 242.163 0.448006C244.723 0.448006 246.685 1.10934 248.051 2.43201C249.459 3.71201 250.44 5.376 250.995 7.424C251.549 9.42934 251.826 11.52 251.826 13.696C251.826 18.7733 251.037 23.5093 249.458 27.904C247.923 32.256 245.917 35.9467 243.443 38.976C240.968 42.0907 238.323 44.48 235.507 46.144C232.733 47.7653 230.088 48.576 227.571 48.576ZM231.027 38.016C232.947 38.016 234.632 37.376 236.083 36.096C237.576 34.816 238.835 33.1947 239.859 31.232C240.883 29.2267 241.651 27.136 242.163 24.96C242.675 22.784 242.931 20.8213 242.931 19.072C242.931 18.3893 242.867 17.664 242.739 16.896C242.611 16.0853 242.333 15.3813 241.907 14.784C241.48 14.1867 240.819 13.888 239.923 13.888C237.96 13.888 236.189 14.6133 234.611 16.064C233.032 17.472 231.709 19.264 230.643 21.44C229.576 23.6587 228.787 25.8347 228.274 27.968C227.763 30.1013 227.507 32.0427 227.507 33.792C227.507 34.688 227.827 35.6267 228.467 36.608C229.107 37.5467 229.96 38.016 231.027 38.016ZM251.325 48.896C251.624 45.9093 251.901 42.944 252.157 40C252.413 37.056 252.648 34.1547 252.861 31.296C253.33 26.0907 253.693 20.9707 253.949 15.936C254.248 10.9013 254.44 6.18667 254.525 1.792C257.853 1.792 260.349 1.728 262.013 1.60001C263.677 1.42934 264.509 1.34401 264.509 1.34401C264.296 3.81867 264.082 6.08 263.869 8.12801C263.656 10.1333 263.464 11.9253 263.293 13.504L262.525 21.248C262.312 23.5947 262.12 25.5787 261.949 27.2C261.821 28.8213 261.693 30.3147 261.565 31.68C261.437 33.0453 261.266 34.5387 261.053 36.16H262.205L269.373 2.112L272.893 1.92001C273.448 1.87734 274.002 1.85601 274.557 1.85601C275.112 1.81334 275.688 1.77067 276.285 1.728C276.882 1.68534 277.437 1.64267 277.949 1.60001C278.504 1.55734 279.016 1.51467 279.485 1.472C278.674 3.98934 277.842 6.80534 276.989 9.92001C276.178 13.0347 275.346 16.256 274.493 19.584C273.682 22.912 272.85 26.1973 271.997 29.44C271.314 32.1707 270.632 34.9653 269.949 37.824C269.266 40.64 268.584 43.4987 267.901 46.4L251.325 48.896ZM272.311 48.384L280.695 2.88L300.919 1.152C300.62 2.09067 300.364 3.05067 300.151 4.03201C299.938 4.84267 299.724 5.69601 299.511 6.59201C299.34 7.44534 299.191 8.21334 299.063 8.896C298.508 8.93867 297.719 8.98134 296.695 9.02401C295.671 9.02401 294.626 9.04534 293.559 9.08801C292.492 9.08801 291.575 9.08801 290.807 9.08801C290.039 9.08801 289.634 9.08801 289.591 9.08801L287.351 20.544L291.063 20.352C291.532 20.3093 292.002 20.288 292.471 20.288C292.983 20.288 293.474 20.288 293.943 20.288C294.412 20.288 294.839 20.288 295.223 20.288C295.607 20.288 295.906 20.2667 296.119 20.224C296.034 20.8213 295.948 21.4187 295.863 22.016C295.82 22.5707 295.756 23.1467 295.671 23.744L295.095 27.264C294.882 27.3067 294.604 27.328 294.263 27.328C293.922 27.328 293.516 27.328 293.047 27.328C292.578 27.3707 292.087 27.392 291.575 27.392C291.063 27.392 290.572 27.4133 290.103 27.456C289.548 27.4987 288.972 27.52 288.375 27.52C287.778 27.52 287.138 27.5413 286.455 27.584L284.279 39.36L293.623 37.888L292.983 45.184L272.311 48.384ZM293.931 48.64C295.211 42.496 296.427 36.544 297.579 30.784C298.518 25.3653 299.436 20.16 300.332 15.168C301.227 10.176 301.867 5.58934 302.252 1.408C302.55 1.45067 302.806 1.472 303.019 1.472C303.276 1.472 303.489 1.472 303.66 1.472H305.003C306.113 1.472 307.35 1.45067 308.716 1.408C310.081 1.32267 311.34 1.25867 312.492 1.216C312.79 2.70934 313.068 4.18134 313.324 5.632C313.622 7.08267 313.878 8.49067 314.092 9.85601C314.305 11.0507 314.54 12.288 314.796 13.568C315.052 14.8053 315.308 16.064 315.564 17.344C315.777 18.624 315.99 19.8187 316.204 20.928C316.46 21.9947 316.673 22.976 316.844 23.872C317.356 21.3547 317.825 18.88 318.252 16.448C318.721 14.016 319.169 11.8187 319.596 9.85601L321.452 1.28001L329.26 0.320004C328.534 3.56267 327.852 6.74134 327.212 9.85601C326.572 12.9707 325.974 15.9787 325.42 18.88C324.353 24.0853 323.414 28.992 322.604 33.6C321.793 38.208 321.174 42.2187 320.748 45.632C321.217 45.632 321.132 45.696 320.492 45.824C319.894 45.9093 318.998 46.0587 317.804 46.272C316.609 46.4427 315.329 46.6773 313.964 46.976C312.598 47.2747 311.382 47.6373 310.316 48.064C310.188 46.3573 310.06 44.6933 309.932 43.072C309.804 41.4507 309.654 39.872 309.484 38.336C309.228 35.6053 308.929 32.896 308.588 30.208C308.246 27.52 307.905 25.3867 307.564 23.808C307.265 25.6853 306.902 27.84 306.476 30.272C306.049 32.6613 305.58 35.072 305.068 37.504L303.276 46.464L293.931 48.64Z" fill="white"/>
</svg>
